<mxfile host="app.diagrams.net" modified="2022-06-22T10:19:15.451Z" agent="5.0 (Macintosh; Intel Mac OS X 10_15_7) AppleWebKit/537.36 (KHTML, like Gecko) Chrome/101.0.4951.64 Safari/537.36" etag="k_2tUjM6ExC_jXAoRzvG" version="15.3.1" type="github">
  <diagram id="FdScgLMTHnAzoe56oRKT" name="Page-1">
    <mxGraphModel dx="946" dy="589" grid="1" gridSize="10" guides="1" tooltips="1" connect="1" arrows="1" fold="1" page="1" pageScale="1" pageWidth="827" pageHeight="1169" math="0" shadow="0">
      <root>
        <mxCell id="0" />
        <mxCell id="1" parent="0" />
        <mxCell id="LDpjBg7KJp0IBDZ8WM9B-1" value="" style="endArrow=classic;html=1;entryX=0.5;entryY=1;entryDx=0;entryDy=0;" edge="1" parent="1" target="LDpjBg7KJp0IBDZ8WM9B-2">
          <mxGeometry width="50" height="50" relative="1" as="geometry">
            <mxPoint x="360" y="600" as="sourcePoint" />
            <mxPoint x="390" y="540" as="targetPoint" />
          </mxGeometry>
        </mxCell>
        <mxCell id="LDpjBg7KJp0IBDZ8WM9B-2" value="Document Representation" style="whiteSpace=wrap;html=1;aspect=fixed;fillColor=#f5f5f5;strokeColor=#666666;fontColor=#333333;" vertex="1" parent="1">
          <mxGeometry x="320" y="480" width="80" height="80" as="geometry" />
        </mxCell>
        <mxCell id="LDpjBg7KJp0IBDZ8WM9B-9" style="edgeStyle=orthogonalEdgeStyle;rounded=0;orthogonalLoop=1;jettySize=auto;html=1;exitX=1;exitY=0.5;exitDx=0;exitDy=0;entryX=0;entryY=0.5;entryDx=0;entryDy=0;" edge="1" parent="1" source="LDpjBg7KJp0IBDZ8WM9B-4" target="LDpjBg7KJp0IBDZ8WM9B-5">
          <mxGeometry relative="1" as="geometry">
            <mxPoint x="390" y="390" as="targetPoint" />
          </mxGeometry>
        </mxCell>
        <mxCell id="LDpjBg7KJp0IBDZ8WM9B-17" style="edgeStyle=orthogonalEdgeStyle;rounded=0;orthogonalLoop=1;jettySize=auto;html=1;exitX=0.5;exitY=0;exitDx=0;exitDy=0;" edge="1" parent="1" source="LDpjBg7KJp0IBDZ8WM9B-4" target="LDpjBg7KJp0IBDZ8WM9B-11">
          <mxGeometry relative="1" as="geometry" />
        </mxCell>
        <mxCell id="LDpjBg7KJp0IBDZ8WM9B-4" value="LSTM B" style="rounded=1;whiteSpace=wrap;html=1;fillColor=#dae8fc;strokeColor=#6c8ebf;" vertex="1" parent="1">
          <mxGeometry x="200" y="360" width="120" height="60" as="geometry" />
        </mxCell>
        <mxCell id="LDpjBg7KJp0IBDZ8WM9B-18" style="edgeStyle=orthogonalEdgeStyle;rounded=0;orthogonalLoop=1;jettySize=auto;html=1;exitX=0.5;exitY=0;exitDx=0;exitDy=0;entryX=0.5;entryY=1;entryDx=0;entryDy=0;" edge="1" parent="1" source="LDpjBg7KJp0IBDZ8WM9B-5" target="LDpjBg7KJp0IBDZ8WM9B-12">
          <mxGeometry relative="1" as="geometry" />
        </mxCell>
        <mxCell id="LDpjBg7KJp0IBDZ8WM9B-5" value="&lt;span&gt;LSTM A&lt;/span&gt;" style="rounded=1;whiteSpace=wrap;html=1;fillColor=#dae8fc;strokeColor=#6c8ebf;" vertex="1" parent="1">
          <mxGeometry x="400" y="360" width="120" height="60" as="geometry" />
        </mxCell>
        <mxCell id="LDpjBg7KJp0IBDZ8WM9B-6" value="" style="endArrow=classic;html=1;entryX=0.5;entryY=1;entryDx=0;entryDy=0;exitX=0.5;exitY=0;exitDx=0;exitDy=0;" edge="1" parent="1" source="LDpjBg7KJp0IBDZ8WM9B-2" target="LDpjBg7KJp0IBDZ8WM9B-5">
          <mxGeometry width="50" height="50" relative="1" as="geometry">
            <mxPoint x="390" y="390" as="sourcePoint" />
            <mxPoint x="440" y="340" as="targetPoint" />
          </mxGeometry>
        </mxCell>
        <mxCell id="LDpjBg7KJp0IBDZ8WM9B-7" value="" style="endArrow=classic;html=1;entryX=0.5;entryY=1;entryDx=0;entryDy=0;exitX=0.5;exitY=0;exitDx=0;exitDy=0;" edge="1" parent="1" source="LDpjBg7KJp0IBDZ8WM9B-2" target="LDpjBg7KJp0IBDZ8WM9B-4">
          <mxGeometry width="50" height="50" relative="1" as="geometry">
            <mxPoint x="390" y="450" as="sourcePoint" />
            <mxPoint x="440" y="340" as="targetPoint" />
          </mxGeometry>
        </mxCell>
        <mxCell id="LDpjBg7KJp0IBDZ8WM9B-15" style="edgeStyle=orthogonalEdgeStyle;rounded=0;orthogonalLoop=1;jettySize=auto;html=1;exitX=0.5;exitY=0;exitDx=0;exitDy=0;entryX=0.5;entryY=1;entryDx=0;entryDy=0;" edge="1" parent="1" source="LDpjBg7KJp0IBDZ8WM9B-11" target="LDpjBg7KJp0IBDZ8WM9B-13">
          <mxGeometry relative="1" as="geometry" />
        </mxCell>
        <mxCell id="LDpjBg7KJp0IBDZ8WM9B-11" value="Represenation B" style="rounded=1;whiteSpace=wrap;html=1;fillColor=#dae8fc;strokeColor=#6c8ebf;" vertex="1" parent="1">
          <mxGeometry x="200" y="260" width="120" height="60" as="geometry" />
        </mxCell>
        <mxCell id="LDpjBg7KJp0IBDZ8WM9B-16" style="edgeStyle=orthogonalEdgeStyle;rounded=0;orthogonalLoop=1;jettySize=auto;html=1;exitX=0.5;exitY=0;exitDx=0;exitDy=0;entryX=0.5;entryY=1;entryDx=0;entryDy=0;" edge="1" parent="1" source="LDpjBg7KJp0IBDZ8WM9B-12" target="LDpjBg7KJp0IBDZ8WM9B-14">
          <mxGeometry relative="1" as="geometry" />
        </mxCell>
        <mxCell id="LDpjBg7KJp0IBDZ8WM9B-12" value="Representation A" style="rounded=1;whiteSpace=wrap;html=1;fillColor=#dae8fc;strokeColor=#6c8ebf;" vertex="1" parent="1">
          <mxGeometry x="400" y="260" width="120" height="60" as="geometry" />
        </mxCell>
        <mxCell id="LDpjBg7KJp0IBDZ8WM9B-13" value="Classification Task B" style="rounded=1;whiteSpace=wrap;html=1;fillColor=#d5e8d4;strokeColor=#82b366;" vertex="1" parent="1">
          <mxGeometry x="200" y="160" width="120" height="60" as="geometry" />
        </mxCell>
        <mxCell id="LDpjBg7KJp0IBDZ8WM9B-14" value="Classification Task A" style="rounded=1;whiteSpace=wrap;html=1;fillColor=#d5e8d4;strokeColor=#82b366;" vertex="1" parent="1">
          <mxGeometry x="400" y="160" width="120" height="60" as="geometry" />
        </mxCell>
      </root>
    </mxGraphModel>
  </diagram>
</mxfile>
